<mxfile host="app.diagrams.net" modified="2022-06-29T13:26:30.703Z" agent="5.0 (Macintosh; Intel Mac OS X 10_15_7) AppleWebKit/537.36 (KHTML, like Gecko) Chrome/103.0.0.0 Safari/537.36" etag="R9nos8xBNtIJ2JQkhxx-" version="17.4.0" type="github">
  <diagram id="efHUNZ1Uev36iej34cFB" name="Page-1">
    <mxGraphModel dx="1426" dy="801" grid="1" gridSize="10" guides="1" tooltips="1" connect="1" arrows="1" fold="1" page="1" pageScale="1" pageWidth="827" pageHeight="1169" math="0" shadow="0">
      <root>
        <mxCell id="0" />
        <mxCell id="1" parent="0" />
        <mxCell id="UaNQstDzobarfxtrJR8k-1" value="일반" style="whiteSpace=wrap;html=1;aspect=fixed;fontSize=20;" parent="1" vertex="1">
          <mxGeometry x="160" y="160" width="120" height="120" as="geometry" />
        </mxCell>
        <mxCell id="UaNQstDzobarfxtrJR8k-2" value="핵심" style="whiteSpace=wrap;html=1;aspect=fixed;fillColor=#f8cecc;strokeColor=#b85450;fontSize=20;" parent="1" vertex="1">
          <mxGeometry x="280" y="160" width="120" height="120" as="geometry" />
        </mxCell>
        <mxCell id="UaNQstDzobarfxtrJR8k-3" value="일반/지원" style="whiteSpace=wrap;html=1;aspect=fixed;fillColor=#f5f5f5;fontColor=#333333;strokeColor=#666666;fontSize=20;" parent="1" vertex="1">
          <mxGeometry x="160" y="280" width="120" height="120" as="geometry" />
        </mxCell>
        <mxCell id="UaNQstDzobarfxtrJR8k-4" value="지원" style="whiteSpace=wrap;html=1;aspect=fixed;fillColor=#fff2cc;strokeColor=#d6b656;fontSize=20;" parent="1" vertex="1">
          <mxGeometry x="280" y="280" width="120" height="120" as="geometry" />
        </mxCell>
        <mxCell id="UaNQstDzobarfxtrJR8k-5" value="" style="endArrow=classic;html=1;rounded=0;dashed=1;" parent="1" edge="1">
          <mxGeometry width="50" height="50" relative="1" as="geometry">
            <mxPoint x="160" y="410" as="sourcePoint" />
            <mxPoint x="420" y="410" as="targetPoint" />
          </mxGeometry>
        </mxCell>
        <mxCell id="UaNQstDzobarfxtrJR8k-6" value="" style="endArrow=classic;html=1;rounded=0;dashed=1;" parent="1" edge="1">
          <mxGeometry width="50" height="50" relative="1" as="geometry">
            <mxPoint x="150" y="400" as="sourcePoint" />
            <mxPoint x="150" y="140" as="targetPoint" />
          </mxGeometry>
        </mxCell>
        <mxCell id="UaNQstDzobarfxtrJR8k-7" value="비즈니스 차별화" style="text;html=1;strokeColor=none;fillColor=none;align=center;verticalAlign=middle;whiteSpace=wrap;rounded=0;fontSize=20;" parent="1" vertex="1">
          <mxGeometry x="220" y="410" width="140" height="30" as="geometry" />
        </mxCell>
        <mxCell id="UaNQstDzobarfxtrJR8k-8" value="로직&lt;br&gt;복잡성" style="text;html=1;strokeColor=none;fillColor=none;align=center;verticalAlign=middle;whiteSpace=wrap;rounded=0;fontSize=20;" parent="1" vertex="1">
          <mxGeometry x="80" y="240" width="80" height="70" as="geometry" />
        </mxCell>
        <mxCell id="UaNQstDzobarfxtrJR8k-9" value="낮음" style="text;html=1;strokeColor=none;fillColor=none;align=center;verticalAlign=middle;whiteSpace=wrap;rounded=0;fontSize=14;" parent="1" vertex="1">
          <mxGeometry x="140" y="410" width="60" height="30" as="geometry" />
        </mxCell>
        <mxCell id="UaNQstDzobarfxtrJR8k-10" value="낮음" style="text;html=1;strokeColor=none;fillColor=none;align=center;verticalAlign=middle;whiteSpace=wrap;rounded=0;fontSize=14;" parent="1" vertex="1">
          <mxGeometry x="100" y="380" width="60" height="30" as="geometry" />
        </mxCell>
        <mxCell id="UaNQstDzobarfxtrJR8k-11" value="높음" style="text;html=1;strokeColor=none;fillColor=none;align=center;verticalAlign=middle;whiteSpace=wrap;rounded=0;fontSize=14;" parent="1" vertex="1">
          <mxGeometry x="380" y="410" width="60" height="30" as="geometry" />
        </mxCell>
        <mxCell id="UaNQstDzobarfxtrJR8k-12" value="높음" style="text;html=1;strokeColor=none;fillColor=none;align=center;verticalAlign=middle;whiteSpace=wrap;rounded=0;fontSize=14;" parent="1" vertex="1">
          <mxGeometry x="100" y="140" width="60" height="30" as="geometry" />
        </mxCell>
      </root>
    </mxGraphModel>
  </diagram>
</mxfile>
